<?xml version="1.0" encoding="utf-8"?>
<!-- Generator: Adobe Illustrator 26.5.2, SVG Export Plug-In . SVG Version: 6.00 Build 0)  -->
<svg version="1.1" id="Layer_1" xmlns="http://www.w3.org/2000/svg" xmlns:xlink="http://www.w3.org/1999/xlink" x="0px" y="0px"
	 viewBox="0 0 1920 872" style="enable-background:new 0 0 1920 872;" xml:space="preserve">
<style type="text/css">
	.st0{fill:#FEFEFE;}
	.st1{fill:#010101;}
</style>
<path d="M203.9,71.3c30.5,0,60.6-0.2,90.7,0.2c5.5,0.1,11.6,1.6,16.2,4.4c9.2,5.7,10.9,15,8.9,25.2c-1.4,7.1-2.6,14.3-3.9,21.4
	c-0.2,1.1,0,2.2,0,3.9c1.9,0,3.4,0,5,0c462.6,0,925.3,0,1387.9,0.1c3.7,0,5.5-0.5,6.2-4.8c1.8-11.5,4-23,6.5-34.4
	c1.6-7.4,6.6-12.3,14-14.1c4.5-1.1,9.3-1.7,13.9-1.7c45.6-0.1,91.2-0.2,136.8,0.1c5.4,0,11.6,1.6,16.2,4.4c9.1,5.5,10.7,14.8,9,24.8
	c-5.4,30.7-10.7,61.5-16.3,92.2c-3.3,18.2-6.7,36.4-10.3,54.6c-1.6,8-6.8,13.4-14.8,14.7c-7.3,1.2-14.7,1.5-22.1,1.8
	c-8.7,0.3-17.4,0.1-26.3,0.1c-18.4,115.3-36.8,230.2-55.2,345.8c3.5,0,6.7-0.2,9.9,0c8.7,0.5,17.4,0.5,26,1.9
	c7.1,1.2,11.3,6.6,13.8,13.3c2.9,8,0.2,15.8-1.1,23.5c-3.8,22.6-7.8,45.2-11.9,67.8c-4.2,23.3-8.4,46.5-12.9,69.8
	c-1.5,7.8-6.7,12.8-14.5,14.6c-4.7,1-9.6,1.7-14.4,1.7c-45.3,0.1-90.6,0.2-135.9,0c-8.3,0-16.2-1.9-21.4-9.5
	c-4.2-6.1-4.9-12.8-3.6-20c1.6-8.5,3.1-17.1,4.8-26.2c-1.7-0.1-3.2-0.2-4.7-0.2c-462.5,0-925,0-1387.5-0.1c-3.8,0-5.1,1.1-5.7,4.9
	c-1.9,11.8-4.1,23.6-6.7,35.3c-1.6,7.4-6.7,12.3-14,14.1c-4.4,1.1-9,1.7-13.5,1.7c-45.7,0.1-91.5,0.2-137.2-0.1
	c-5.3,0-11.3-1.5-15.8-4.2c-9.1-5.4-11.1-14.6-9.3-24.6c4.8-27.4,9.6-54.7,14.5-82.1c3.9-21.7,7.8-43.5,12-65.1
	c1.5-8,6.8-13.1,14.8-14.8c4.6-1,9.3-1.6,13.9-1.7c9.7-0.3,19.5-0.2,29.2,0c2.9,0.1,4.2-1,4.6-3.7c1.7-11.3,3.5-22.5,5.3-33.8
	c2.4-15.5,4.8-31,7.2-46.5c2.5-15.6,5-31.2,7.5-46.8c2.5-15.8,5.1-31.5,7.5-47.3c3-18.9,5.8-37.7,8.8-56.6c3-19.3,6.2-38.5,9.2-57.8
	c2.7-17,5.3-34.1,7.9-51.1c0.1-0.5-0.1-1.1-0.2-2.4c-1.8,0-3.6,0.1-5.4,0c-9.8-0.5-19.7-0.5-29.4-1.9c-7.3-1.1-11.5-6.6-14-13.6
	c-2.9-8.1-0.1-15.8,1.2-23.5c3.8-22.5,7.8-44.9,11.8-67.4c3.2-18.4,6.5-36.8,9.8-55.1c0.9-4.9,1.9-9.8,3-14.6
	c1.9-8,6.9-13.1,14.9-14.7c4.6-1,9.3-1.6,13.9-1.7C173.6,71.1,188.5,71.3,203.9,71.3 M821.4,568.7c-3.3,18.8-6.7,37.6-10,56.3
	c0.6,0.3,0.9,0.5,1.1,0.5c21.5,0,43,0,64.5,0.1c2.4,0,2.7-1.1,3-3.1c1.6-10,3.4-19.9,5.3-30.6c1.2,1.9,2,3.3,2.8,4.5
	c13.5,19.4,31.4,31.7,55.4,33c16.6,0.9,33.2,0.6,49.8,0.1c24.3-0.8,46.2-8.7,65.1-24.2c23.3-19.2,36.5-44.6,42.3-73.7
	c5.6-27.6,10.3-55.4,14.4-83.3c2.7-18.6,0.1-37-9.5-53.6c-15.2-26.3-39.6-38.2-68.6-41c-16.6-1.6-33.5-0.8-50.2-1.2
	c-12.3-0.3-23.9,2.4-34.6,8.4c-8,4.5-15.6,9.9-23.5,15c7.3-42.1,14.8-84.5,22.2-127c-24.9,0-49.1,0-73.4,0c-0.3,1.7-0.7,3.2-1,4.8
	c-2.4,13.8-4.8,27.6-7.2,41.4c-6.5,36.7-12.9,73.5-19.4,110.2c-5.6,31.8-11.1,63.7-16.7,95.5C829.3,523.1,825.4,545.5,821.4,568.7
	 M332.9,340.1c5.3-30.3,10.7-60.7,16-91.3c-24.9,0-49.1,0-73.6,0c-22,125.5-44.1,250.9-66.1,376.4c24.8,0,49.1,0,73.6,0
	c2-11.2,3.9-22.1,5.8-33.1c6.5-36.9,13.2-73.8,19.2-110.7c2.3-13.9,6.3-26.6,15.2-37.6c11.8-14.6,26.1-25.6,45.5-27.1
	c13-1,26.1-0.5,39.1-0.3c6.2,0.1,11.8,2.2,16.2,6.8c6.2,6.6,8.3,14.8,7.3,23.5c-1.2,11.4-3.3,22.6-5.2,33.9
	c-6.6,38.5-13.4,76.9-20.1,115.4c-1.7,9.7-3.4,19.4-5.1,29.3c24.7,0,49,0,73.3,0c0.2-0.7,0.5-1.2,0.6-1.8
	c3.2-18.4,6.5-36.9,9.7-55.3c6.5-36.9,12.9-73.8,19.4-110.7c3.1-17.6,4.5-35.2-0.9-52.7c-8.6-27.9-33.1-47.7-67.2-51.2
	c-13.2-1.3-26.6-0.5-39.9-1.2c-19.3-0.9-36.3,5.3-52,15.9c-6.1,4.1-11.7,8.9-18.1,13.8C328,368.1,330.4,354.5,332.9,340.1
	 M1319.5,353.8c-5.1-0.4-10.3-1.1-15.4-1.1c-18.6-0.2-37.3-0.2-55.9-0.1c-20.4,0-40.2,3.5-58.6,12.6c-33.7,16.7-54.1,44.3-63.4,80.1
	c-4.5,17.5-7.2,35.6-10.4,53.4c-2.8,15.6-6.6,31.1-6.1,47.1c0.8,21,7.6,39.5,22.7,54.5c20.3,20.2,45.7,28.3,73.5,29.2
	c19.6,0.7,39.3,0.4,58.9,0.4c17-0.1,33.7-2.4,49.6-8.5c39.1-15.1,61.9-44.5,72-84.1c4.5-17.7,7.2-35.9,10.4-53.8
	c2.1-11.8,4.5-23.6,5.7-35.6c2.7-28.2-5.1-52.7-27.4-71.4C1359.2,363.1,1340.5,356.7,1319.5,353.8 M1661.5,356.9
	c-16.9,0-33.8,0.1-50.7-0.1c-2.7,0-4.5,0.8-6.2,2.8c-14.2,15.6-28.4,31.1-42.7,46.6c-9.2,10-18.4,19.9-27.7,30.1
	c-14.5-25.6-28.9-50.8-43.1-76.1c-1.4-2.5-2.8-3.3-5.6-3.3c-24.2,0.1-48.4,0.1-72.7,0.1c-1.1,0-2.1,0-3.6,0c1.4,2.6,2.5,4.6,3.6,6.5
	c23.2,40.9,46.5,81.8,69.8,122.6c1.3,2.3,1.5,3.7-0.5,5.8c-39.1,42.1-78,84.2-117,126.4c-2,2.2-4,4.5-6.5,7.3
	c28.1,0,55.2,0.1,82.3-0.1c1.6,0,3.6-1.5,4.8-2.9c20.9-22.6,41.8-45.2,62.7-67.8c3.8-4.2,7.7-8.3,11.9-12.7c0.8,1.4,1.4,2.4,1.9,3.4
	c14.5,25.6,29,51.2,43.4,76.9c1.4,2.5,2.8,3.4,5.6,3.3c23.9-0.1,47.9-0.1,71.8-0.1c1.2,0,2.5-0.1,4.2-0.2c-1-1.9-1.7-3.4-2.5-4.8
	c-24.2-42.5-48.3-85-72.6-127.4c-1.6-2.8-1.7-4.4,0.6-6.9c34.9-37.8,69.6-75.6,104.4-113.5c4.7-5.1,9.3-10.2,14.5-15.9
	C1681.2,356.9,1671.8,356.9,1661.5,356.9 M706.6,311.2c-2.7,15.2-5.4,30.3-8.1,45.9c-16.7,0-33.1,0-49.5,0
	c-3.6,21-7.2,41.6-10.8,62.8c16.1,0,31.6,0,47.3,0c-6.3,34.9-12.6,69.4-18.6,103.9c-2.8,16.2-6.4,32.3-4.5,48.9
	c2.4,21.5,12.5,37.4,33,45.7c11.4,4.6,23.4,6.7,35.6,6.9c19.1,0.3,38.1,0.3,57.2,0.3c1.2,0,2.5-0.2,3.7-0.3
	c3.8-20.9,7.5-41.5,11.3-62.6c-2.1,0-3.7,0-5.2,0c-14.6,0-29.2,0.1-43.9-0.2c-8.5-0.2-14.4-4.5-15.7-12c-0.8-4.7-0.8-9.7,0-14.4
	c4.9-28.9,10.1-57.7,15.2-86.6c1.8-9.9,3.6-19.9,5.5-30c23.2,0,46.2,0,69.3,0c3.6-20.9,7.2-41.7,10.8-62.8c-23.5,0-46.3,0-69.3,0
	c4.8-27,9.6-53.7,14.4-80.7c-23.8,0-47.4,0-71.4,0C710.9,287.4,708.8,298.9,706.6,311.2 M586.2,356.9c-9.4,0-18.9,0-28.6,0
	c-15.8,89.5-31.5,178.8-47.3,268.4c24.7,0,49.1,0,73.6,0c15.8-89.5,31.5-178.8,47.3-268.4C616.3,356.9,601.7,356.9,586.2,356.9
	 M1879.6,151.8c3.4-19.3,6.8-38.5,10.3-58c-49.4,0-98.5,0-147.8,0c-4.3,24.6-8.6,49-13,73.8c24.7,0,49.2,0,73.9,0
	c-4.4,24.8-8.7,49.2-13,73.8c24.9,0,49.3,0,73.9,0C1869.1,211.7,1874.3,182.1,1879.6,151.8 M181.9,767.2
	c3.6-20.3,7.1-40.5,10.8-61.1c-24.8,0-49.3,0-73.9,0c4.4-24.8,8.7-49.2,13-73.8c-24.9,0-49.4,0-73.9,0c-8.7,49.3-17.3,98.4-26,147.6
	c49.5,0,98.6,0,147.8,0C180.4,775.8,181.1,771.9,181.9,767.2 M287.7,93.6c-45.7,0-91.4,0-137,0c-8.7,49.5-17.4,98.6-26,147.8
	c24.6,0,49.1,0,73.8,0c4.3-24.6,8.7-49.2,13-73.8c24.8,0,49.1,0,73.8,0c4.3-24.6,8.7-49.2,13-74C294.9,93.6,291.7,93.6,287.7,93.6
	 M1622.5,773.8c-0.3,2-0.6,3.9-1,6.1c49.2,0,98.4,0,147.7,0c8.7-49.2,17.3-98.4,26-147.6c-24.8,0-49.3,0-73.8,0
	c-4.3,24.6-8.7,49.1-13,73.8c-24.7,0-49.2,0-73.8,0C1630.6,728.6,1626.6,750.9,1622.5,773.8 M644.5,254.7c-5.2-3.1-10-7.5-15.7-9.1
	c-14.5-4.3-29-2.9-42.5,4.1c-19,9.8-27.8,28.8-26.4,49.6c1.1,16.5,10.7,27.7,26.8,31.3c5.9,1.3,12.2,1.5,18.3,1.2
	c22.2-0.8,40.6-15.1,46.4-36.2C655.3,281.3,655.8,267.2,644.5,254.7z"/>
<path class="st0" d="M821.4,568.3c4-22.8,7.9-45.1,11.8-67.5c5.6-31.8,11.1-63.7,16.7-95.5c6.5-36.7,12.9-73.5,19.4-110.2
	c2.4-13.8,4.8-27.6,7.2-41.4c0.3-1.5,0.6-3.1,1-4.8c24.3,0,48.5,0,73.4,0c-7.4,42.6-14.8,85-22.2,127c7.9-5.1,15.4-10.4,23.5-15
	c10.7-6,22.3-8.8,34.6-8.4c16.8,0.4,33.6-0.4,50.2,1.2c29.1,2.7,53.4,14.7,68.6,41c9.6,16.6,12.2,34.9,9.5,53.6
	c-4.1,27.9-8.8,55.7-14.4,83.3c-5.8,29.1-19,54.5-42.3,73.7c-18.9,15.6-40.8,23.4-65.1,24.2c-16.6,0.5-33.3,0.8-49.8-0.1
	c-24-1.2-41.9-13.6-55.4-33c-0.9-1.2-1.6-2.6-2.8-4.5c-1.9,10.7-3.7,20.7-5.3,30.6c-0.3,2-0.7,3.1-3,3.1c-21.5-0.1-43-0.1-64.5-0.1
	c-0.3,0-0.5-0.2-1.1-0.5C814.7,606.3,818,587.5,821.4,568.3 M990.5,564.4c8.3-1.5,15.3-5.3,21.4-11.1c8.8-8.3,14.3-18.6,16.9-30.3
	c3.3-15.2,6.1-30.5,8.7-45.9c1.6-9.3,3.3-18.7,3.2-28c-0.1-17.4-10.5-30.1-27.2-31.5c-15.6-1.4-31.5-0.3-47.2-0.1
	c-2.9,0-5.9,1-8.8,1.9c-22.8,7.7-36.9,24.1-43.8,46.4c-3.6,11.6-4.9,24-7.2,36.1c-1.8,9.4-3.7,18.7-1.8,28.5
	c3.7,19,18.4,35.8,41.7,34.9c11-0.4,22.1,0,33.1-0.1C983,565.2,986.4,564.8,990.5,564.4z"/>
<path class="st0" d="M332.8,340.5c-2.4,14-4.8,27.6-7.3,41.7c6.4-4.9,12-9.7,18.1-13.8c15.7-10.6,32.7-16.8,52-15.9
	c13.3,0.7,26.7-0.2,39.9,1.2c34.1,3.4,58.5,23.3,67.2,51.2c5.4,17.5,4,35,0.9,52.7c-6.6,36.9-13,73.8-19.4,110.7
	c-3.2,18.4-6.4,36.9-9.7,55.3c-0.1,0.6-0.4,1.1-0.6,1.8c-24.3,0-48.6,0-73.3,0c1.7-10,3.5-19.6,5.1-29.3
	c6.7-38.5,13.5-76.9,20.1-115.4c1.9-11.3,4-22.5,5.2-33.9c0.9-8.6-1.2-16.9-7.3-23.5c-4.3-4.7-10-6.8-16.2-6.8
	c-13-0.1-26.1-0.6-39.1,0.3c-19.4,1.5-33.6,12.5-45.5,27.1c-8.9,11-13,23.7-15.2,37.6c-6,37-12.8,73.8-19.2,110.7
	c-1.9,11-3.8,21.9-5.8,33.1c-24.5,0-48.8,0-73.6,0c22.1-125.6,44.1-250.9,66.1-376.4c24.5,0,48.7,0,73.6,0
	C343.5,279.4,338.2,309.8,332.8,340.5z"/>
<path class="st0" d="M1319.9,353.9c20.6,2.7,39.3,9.2,55.2,22.4c22.4,18.7,30.1,43.2,27.4,71.4c-1.1,11.9-3.5,23.8-5.7,35.6
	c-3.3,18-5.9,36.2-10.4,53.8c-10.1,39.6-32.9,69-72,84.1c-15.9,6.1-32.6,8.5-49.6,8.5c-19.6,0.1-39.3,0.3-58.9-0.4
	c-27.9-0.9-53.2-9-73.5-29.2c-15.1-15-21.9-33.5-22.7-54.5c-0.6-16.1,3.2-31.5,6.1-47.1c3.2-17.9,5.9-35.9,10.4-53.4
	c9.2-35.8,29.6-63.4,63.4-80.1c18.4-9.1,38.2-12.5,58.6-12.6c18.6,0,37.3,0,55.9,0.1C1309.3,352.7,1314.4,353.4,1319.9,353.9
	 M1304.6,547.9c5.2-6.8,9.1-14.3,10.8-22.6c2.8-13.9,5.4-27.8,7.6-41.7c1.8-11.1,4-22.3,4.1-33.5c0.3-20.4-14.1-34-34.5-34
	c-15.6,0-31.2,0-46.8,0c-17.6,0-31,7.6-40.8,22.1c-6.4,9.5-9,20.3-10.7,31.4c-3.1,19.5-7.3,38.8-9.2,58.4
	c-2.1,22.4,11.7,39,34.8,38.7c14.9-0.2,29.8-0.1,44.7,0C1280.7,566.6,1294,560.8,1304.6,547.9z"/>
<path class="st0" d="M1661.9,356.9c9.9,0,19.3,0,29.6,0c-5.2,5.7-9.8,10.8-14.5,15.9c-34.8,37.9-69.5,75.7-104.4,113.5
	c-2.3,2.5-2.2,4.1-0.6,6.9c24.3,42.4,48.4,84.9,72.6,127.4c0.8,1.4,1.5,2.9,2.5,4.8c-1.8,0.1-3,0.2-4.2,0.2c-23.9,0-47.9,0-71.8,0.1
	c-2.8,0-4.2-0.9-5.6-3.3c-14.4-25.7-28.9-51.3-43.4-76.9c-0.5-1-1.1-1.9-1.9-3.4c-4.1,4.4-8,8.6-11.9,12.7
	c-20.9,22.6-41.7,45.3-62.7,67.8c-1.2,1.3-3.2,2.9-4.8,2.9c-27.1,0.2-54.2,0.1-82.3,0.1c2.5-2.8,4.5-5.1,6.5-7.3
	c39-42.2,78-84.3,117-126.4c2-2.1,1.8-3.5,0.5-5.8c-23.3-40.8-46.6-81.7-69.8-122.6c-1.1-2-2.2-4-3.6-6.5c1.5,0,2.6,0,3.6,0
	c24.2,0,48.5,0.1,72.7-0.1c2.8,0,4.2,0.9,5.6,3.3c14.2,25.3,28.6,50.5,43.1,76.1c9.3-10.1,18.5-20.1,27.7-30.1
	c14.2-15.5,28.5-31,42.7-46.6c1.8-2,3.5-2.8,6.2-2.8C1627.7,356.9,1644.6,356.9,1661.9,356.9z"/>
<path class="st0" d="M706.7,310.8c2.2-11.9,4.2-23.4,6.3-34.8c24,0,47.6,0,71.4,0c-4.8,27-9.6,53.7-14.4,80.7c23,0,45.8,0,69.3,0
	c-3.6,21.1-7.2,41.9-10.8,62.8c-23.1,0-46,0-69.3,0c-1.8,10.1-3.7,20-5.5,30c-5.1,28.8-10.3,57.7-15.2,86.6c-0.8,4.7-0.9,9.8,0,14.4
	c1.3,7.4,7.2,11.8,15.7,12c14.6,0.3,29.2,0.2,43.9,0.2c1.6,0,3.1,0,5.2,0c-3.8,21-7.5,41.6-11.3,62.6c-1.3,0.1-2.5,0.3-3.7,0.3
	c-19.1-0.1-38.1,0-57.2-0.3c-12.2-0.2-24.2-2.3-35.6-6.9c-20.6-8.3-30.6-24.1-33-45.7c-1.9-16.7,1.7-32.8,4.5-48.9
	c6-34.5,12.3-68.9,18.6-103.9c-15.7,0-31.2,0-47.3,0c3.6-21.1,7.2-41.8,10.8-62.8c16.4,0,32.8,0,49.5,0
	C701.2,341.5,703.9,326.3,706.7,310.8z"/>
<path class="st0" d="M586.7,356.9c15,0,29.6,0,44.5,0c-15.8,89.6-31.5,178.8-47.3,268.4c-24.5,0-48.9,0-73.6,0
	c15.8-89.5,31.5-178.9,47.3-268.4C567.3,356.9,576.8,356.9,586.7,356.9z"/>
<path class="st0" d="M1879.6,152.1c-5.3,29.9-10.5,59.5-15.7,89.3c-24.5,0-49,0-73.9,0c4.3-24.6,8.6-49,13-73.8
	c-24.7,0-49.2,0-73.9,0c4.4-24.8,8.7-49.3,13-73.8c49.3,0,98.4,0,147.8,0C1886.4,113.2,1883,132.5,1879.6,152.1z"/>
<path class="st0" d="M181.8,767.5c-0.8,4.3-1.4,8.3-2.1,12.4c-49.2,0-98.3,0-147.8,0c8.7-49.2,17.3-98.3,26-147.6
	c24.5,0,49,0,73.9,0c-4.3,24.6-8.6,49-13,73.8c24.7,0,49.1,0,73.9,0C189.1,726.7,185.5,746.9,181.8,767.5z"/>
<path class="st0" d="M288.2,93.6c3.6,0,6.7,0,10.3,0c-4.4,24.8-8.7,49.3-13,74c-24.7,0-49,0-73.8,0c-4.4,24.7-8.7,49.2-13,73.8
	c-24.7,0-49.2,0-73.8,0c8.7-49.2,17.3-98.3,26-147.8C196.4,93.6,242.1,93.6,288.2,93.6z"/>
<path class="st0" d="M1622.6,773.5c4-22.6,8-44.8,11.9-67.3c24.6,0,49.1,0,73.8,0c4.4-24.7,8.7-49.2,13-73.8c24.6,0,49,0,73.8,0
	c-8.7,49.3-17.3,98.4-26,147.6c-49.3,0-98.4,0-147.7,0C1621.9,777.8,1622.2,775.8,1622.6,773.5z"/>
<path class="st0" d="M644.8,254.9c11.1,12.3,10.5,26.4,6.6,40.6c-5.7,21.1-24.1,35.4-46.4,36.2c-6.1,0.2-12.4,0.1-18.3-1.2
	c-16-3.6-25.7-14.9-26.8-31.3c-1.4-20.7,7.4-39.7,26.4-49.6c13.5-7,28-8.4,42.5-4.1C634.5,247.2,639.3,251.6,644.8,254.9z"/>
<path d="M990.2,564.4c-3.8,0.3-7.2,0.8-10.6,0.8c-11,0.1-22.1-0.3-33.1,0.1c-23.3,0.9-38-16-41.7-34.9c-1.9-9.8,0-19.1,1.8-28.5
	c2.3-12,3.6-24.4,7.2-36.1c6.9-22.3,21-38.8,43.8-46.4c2.8-1,5.8-1.9,8.8-1.9c15.7-0.2,31.6-1.3,47.2,0.1
	c16.7,1.5,27.1,14.1,27.2,31.5c0,9.3-1.7,18.7-3.2,28c-2.6,15.3-5.3,30.7-8.7,45.9c-2.5,11.6-8.1,21.9-16.9,30.3
	C1005.9,559,998.8,562.9,990.2,564.4z"/>
<path class="st1" d="M1304.4,548.1c-10.4,12.7-23.7,18.4-39.7,18.4c-14.9-0.1-29.8-0.2-44.7,0c-23.2,0.3-37-16.3-34.8-38.7
	c1.9-19.6,6.1-38.9,9.2-58.4c1.8-11.1,4.3-21.9,10.7-31.4c9.7-14.5,23.2-22.1,40.8-22.1c15.6,0,31.2,0,46.8,0
	c20.4,0.1,34.7,13.6,34.5,34c-0.1,11.2-2.3,22.4-4.1,33.5c-2.2,14-4.9,27.9-7.6,41.7C1313.7,533.6,1309.9,541.1,1304.4,548.1z"/>
</svg>
