<?xml version="1.0" encoding="UTF-8" standalone="no"?>
<svg
   version="1.1"
   width="24"
   height="24"
   viewBox="0 0 24 24"
   id="svg1212"
   sodipodi:docname="lock-outline-roomlist-2.svg"
   inkscape:version="1.2.1 (9c6d41e410, 2022-07-14)"
   xmlns:inkscape="http://www.inkscape.org/namespaces/inkscape"
   xmlns:sodipodi="http://sodipodi.sourceforge.net/DTD/sodipodi-0.dtd"
   xmlns="http://www.w3.org/2000/svg"
   xmlns:svg="http://www.w3.org/2000/svg">
  <defs
     id="defs1216" />
  <sodipodi:namedview
     id="namedview1214"
     pagecolor="#ffffff"
     bordercolor="#000000"
     borderopacity="0.25"
     inkscape:showpageshadow="2"
     inkscape:pageopacity="0.0"
     inkscape:pagecheckerboard="0"
     inkscape:deskcolor="#d1d1d1"
     showgrid="false"
     inkscape:zoom="10.697917"
     inkscape:cx="13.974684"
     inkscape:cy="4.1129503"
     inkscape:window-width="2560"
     inkscape:window-height="1377"
     inkscape:window-x="-8"
     inkscape:window-y="-8"
     inkscape:window-maximized="1"
     inkscape:current-layer="svg1212" />
  <path
     d="m 12,17 c -1.11,0 -2,-0.9 -2,-2 0,-1.11 0.89,-2 2,-2 1.104569,0 2,0.895431 2,2 0,1.104569 -0.895431,2 -2,2 m 6.495732,3.495732 0.0083,-10.9914641 -12.9997261,-0.00826 V 20.495732 M 18,8 c 1.104569,0 2,0.8954305 2,2 v 10 c 0,1.104569 -0.895431,2 -2,2 H 6 C 4.89,22 4,21.1 4,20 V 10 C 4,8.89 4.89,8 6,8 H 7 V 5.5042679 C 7,2.7428442 9.2385763,1 12,1 c 2.761424,0 5,1.734582 5,4.4960057 V 8 h 1 M 12.016524,2.5042679 c -1.656854,0 -3.5122561,1.3348836 -3.5122561,2.9917378 V 8 h 6.9914641 l 0.0083,-2.4957321 c 0.0055,-1.6568451 -1.830616,-3 -3.48747,-3 z"
     fill="#d5d5d5"
     id="path1210"
     sodipodi:nodetypes="csssccccccssssssscsssccssccsss" />
</svg>
